<svg width="215" height="30" viewBox="0 0 215 30" fill="none" xmlns="http://www.w3.org/2000/svg">
<path d="M18.682 25.4648L18.057 26.2461C16.2602 28.3424 13.6299 29.3906 10.1664 29.3906C7.09349 29.3906 4.67812 28.375 2.92031 26.3438C1.17552 24.2995 0.283592 21.4154 0.24453 17.6914V12.1055C0.24453 8.12109 1.0388 5.13932 2.62734 3.16016C4.2289 1.16797 6.61823 0.171875 9.79531 0.171875C12.5036 0.171875 14.6195 0.927083 16.143 2.4375C17.6794 3.94792 18.5258 6.10286 18.682 8.90234H15.1078C14.9646 7.13151 14.4698 5.7513 13.6234 4.76172C12.7901 3.75911 11.5206 3.25781 9.81484 3.25781C7.77057 3.25781 6.27318 3.92839 5.32265 5.26953C4.37213 6.59766 3.87734 8.72656 3.83828 11.6562V17.457C3.83828 20.3216 4.38515 22.5221 5.4789 24.0586C6.57265 25.582 8.14167 26.3438 10.1859 26.3438C12.113 26.3438 13.5779 25.875 14.5805 24.9375L15.1078 24.4492V17.8867H9.9125V14.8398H18.682V25.4648ZM29.3156 25.9336H40.468V29H25.7219V0.5625H29.3156V25.9336ZM59.5977 21.5781H49.9883L47.7812 29H44.1094L53.2695 0.5625H56.3359L65.5156 29H61.8438L59.5977 21.5781ZM50.9258 18.4922H58.6797L54.793 5.5625L50.9258 18.4922ZM89.157 29H85.5633L74.1766 7.08594V29H70.5828V0.5625H74.1766L85.6023 22.5742V0.5625H89.157V29ZM114.38 19.9766C114.224 23.0234 113.365 25.3542 111.802 26.9688C110.253 28.5833 108.059 29.3906 105.22 29.3906C102.369 29.3906 100.103 28.3099 98.4234 26.1484C96.7438 23.974 95.9039 21.0312 95.9039 17.3203V12.1641C95.9039 8.46615 96.7633 5.54297 98.482 3.39453C100.214 1.24609 102.571 0.171875 105.552 0.171875C108.3 0.171875 110.422 0.998698 111.92 2.65234C113.43 4.29297 114.25 6.64323 114.38 9.70312H110.767C110.611 7.38542 110.123 5.73177 109.302 4.74219C108.482 3.7526 107.232 3.25781 105.552 3.25781C103.612 3.25781 102.121 4.01953 101.08 5.54297C100.038 7.05339 99.5172 9.27344 99.5172 12.2031V17.418C99.5172 20.2956 99.999 22.5026 100.963 24.0391C101.939 25.5755 103.358 26.3438 105.22 26.3438C107.082 26.3438 108.423 25.8815 109.244 24.957C110.064 24.0326 110.572 22.3724 110.767 19.9766H114.38ZM134.077 15.8555H124.018V25.9336H135.737V29H120.444V0.5625H135.541V3.64844H124.018V12.7891H134.077V15.8555ZM141.527 29V0.5625H148.304C151.624 0.5625 154.202 1.60417 156.038 3.6875C157.874 5.75781 158.792 8.67448 158.792 12.4375V17.2031C158.792 20.9661 157.861 23.8763 155.999 25.9336C154.137 27.9779 151.435 29 147.894 29H141.527ZM145.101 3.64844V25.9336H147.972C150.485 25.9336 152.321 25.2174 153.48 23.7852C154.639 22.3398 155.231 20.2044 155.257 17.3789V12.3398C155.257 9.34505 154.678 7.15104 153.519 5.75781C152.373 4.35156 150.635 3.64844 148.304 3.64844H145.101ZM163.332 27.1055C163.332 26.4805 163.514 25.9596 163.879 25.543C164.257 25.1263 164.816 24.918 165.559 24.918C166.301 24.918 166.861 25.1263 167.238 25.543C167.629 25.9596 167.824 26.4805 167.824 27.1055C167.824 27.7044 167.629 28.2057 167.238 28.6094C166.861 29.013 166.301 29.2148 165.559 29.2148C164.816 29.2148 164.257 29.013 163.879 28.6094C163.514 28.2057 163.332 27.7044 163.332 27.1055ZM183.927 17.4961H178.927V29H175.333V0.5625H183.302C186.088 0.5625 188.197 1.29167 189.63 2.75C191.062 4.19531 191.778 6.31771 191.778 9.11719C191.778 10.875 191.388 12.4115 190.606 13.7266C189.838 15.0286 188.744 16.0117 187.325 16.6758L192.833 28.7656V29H188.985L183.927 17.4961ZM178.927 14.4297H183.263C184.76 14.4297 185.951 13.9479 186.837 12.9844C187.735 12.0208 188.184 10.7318 188.184 9.11719C188.184 5.47135 186.531 3.64844 183.223 3.64844H178.927V14.4297ZM214.736 0.5625V20.7773C214.71 23.4727 213.929 25.582 212.392 27.1055C210.856 28.6289 208.714 29.3906 205.966 29.3906C203.154 29.3906 201.005 28.6484 199.521 27.1641C198.037 25.6667 197.282 23.5378 197.255 20.7773V0.5625H200.81V20.6406C200.81 22.5547 201.214 23.987 202.021 24.9375C202.841 25.875 204.157 26.3438 205.966 26.3438C207.789 26.3438 209.104 25.875 209.912 24.9375C210.732 23.987 211.142 22.5547 211.142 20.6406V0.5625H214.736Z" fill="black"/>
</svg>
