<svg width="14" height="14" viewBox="0 0 14 14" fill="none" xmlns="http://www.w3.org/2000/svg">
<path fill-rule="evenodd" clip-rule="evenodd" d="M8.56936 8.5693C10.0739 7.06481 10.0739 4.62556 8.56936 3.12107C7.06488 1.61658 4.62562 1.61658 3.12113 3.12107C1.61665 4.62556 1.61665 7.06481 3.12113 8.5693C4.62562 10.0738 7.06488 10.0738 8.56936 8.5693ZM9.76785 9.76779C11.9342 7.60139 11.9342 4.08898 9.76785 1.92259C7.60146 -0.243807 4.08904 -0.243808 1.92265 1.92259C-0.243747 4.08898 -0.243747 7.60139 1.92265 9.76779C4.08904 11.9342 7.60146 11.9342 9.76785 9.76779Z" fill="black"/>
<path fill-rule="evenodd" clip-rule="evenodd" d="M12.5957 13.5764L8.91334 9.89404L10.3176 8.48975L14 12.1721L12.5957 13.5764Z" fill="black"/>
</svg>
